<svg width="24" height="24" viewBox="0 0 24 24" fill="none" xmlns="http://www.w3.org/2000/svg">
<path d="M12.5805 7.14C14.3288 7.14 15.645 7.92975 15.645 9.57675C15.645 11.1225 14.6393 11.6355 14.0858 11.757V11.865C14.7068 12.0067 15.8543 12.4995 15.8543 14.1802C15.8543 15.9757 14.4368 16.86 12.6548 16.86H8.14575V7.14H12.5805ZM9.786 15.4897H12.432C13.4715 15.4897 14.2208 15.105 14.2208 14.052C14.2208 12.999 13.4715 12.621 12.432 12.621H9.786V15.4897ZM9.786 11.2507H12.351C13.3298 11.2507 14.0588 10.893 14.0588 9.8805C14.0588 8.868 13.3298 8.51025 12.351 8.51025H9.786V11.2507Z" fill="black"/>
</svg>
