<svg width="24" height="24" viewBox="0 0 24 24" fill="none" xmlns="http://www.w3.org/2000/svg">
<mask id="mask0_116_150" style="mask-type:alpha" maskUnits="userSpaceOnUse" x="0" y="0" width="24" height="24">
<rect width="24" height="24" fill="#D9D9D9"/>
</mask>
<g mask="url(#mask0_116_150)">
<path d="M3 9V3H5V6.35C5.83333 5.31667 6.85417 4.5 8.0625 3.9C9.27083 3.3 10.5833 3 12 3C13.9667 3 15.7208 3.55833 17.2625 4.675C18.8042 5.79167 19.8833 7.23333 20.5 9H18.325C17.7583 7.8 16.9167 6.83333 15.8 6.1C14.6833 5.36667 13.4167 5 12 5C11.05 5 10.1542 5.175 9.3125 5.525C8.47083 5.875 7.73333 6.36667 7.1 7H9V9H3ZM6 18H18L14.25 13L11.25 17L9 14L6 18ZM5 22C4.45 22 3.97917 21.8042 3.5875 21.4125C3.19583 21.0208 3 20.55 3 20V12H5V20H19V12H21V20C21 20.55 20.8042 21.0208 20.4125 21.4125C20.0208 21.8042 19.55 22 19 22H5Z" fill="black"/>
</g>
</svg>
